<svg xmlns="http://www.w3.org/2000/svg" xmlns:xlink="http://www.w3.org/1999/xlink" width="205" height="72" viewBox="0 0 205 72">
  <defs>
    <clipPath id="clip-path">
      <rect width="205" height="72" fill="none"/>
    </clipPath>
  </defs>
  <g id="Component_1" data-name="Component 1" clip-path="url(#clip-path)">
    <rect id="Rectangle_380" data-name="Rectangle 380" width="205" height="72" rx="4"/>
    <text id="Apple_Store" data-name="Apple Store" transform="translate(68 43)" fill="#fff" font-size="20" font-family="Poppins-Medium, Poppins" font-weight="500"><tspan x="0" y="0">Apple Store</tspan></text>
    <path id="Apple_logo_black" d="M39.861,25.82a15.223,15.223,0,0,1-1.505,2.707,13.751,13.751,0,0,1-1.939,2.344,3.762,3.762,0,0,1-2.492,1.1,6.247,6.247,0,0,1-2.3-.55,6.606,6.606,0,0,0-2.478-.548,6.83,6.83,0,0,0-2.549.548,6.857,6.857,0,0,1-2.2.579,3.542,3.542,0,0,1-2.549-1.127,14.44,14.44,0,0,1-2.028-2.427,16.783,16.783,0,0,1-2.145-4.26,15.6,15.6,0,0,1-.9-5.078,9.272,9.272,0,0,1,1.218-4.851,7.143,7.143,0,0,1,2.55-2.58,6.86,6.86,0,0,1,3.448-.973,8.118,8.118,0,0,1,2.667.621,8.573,8.573,0,0,0,2.115.622,12.656,12.656,0,0,0,2.345-.733,7.752,7.752,0,0,1,3.188-.566,6.769,6.769,0,0,1,5.3,2.792A5.9,5.9,0,0,0,36.475,18.8a5.911,5.911,0,0,0,1.941,4.454,6.378,6.378,0,0,0,1.939,1.272q-.233.677-.494,1.3Zm-5.4-21.26a5.973,5.973,0,0,1-1.531,3.918,5.217,5.217,0,0,1-4.333,2.139,4.359,4.359,0,0,1-.032-.531,6.137,6.137,0,0,1,1.624-3.959A6.255,6.255,0,0,1,32.164,4.64,5.9,5.9,0,0,1,34.428,4a5.088,5.088,0,0,1,.029.56Z" transform="translate(5.166 18.001)" fill="#fff"/>
  </g>
</svg>
